:SAMPLES-PER-SECOND 30
:FULLY-SPECIFIED
:DEGREES
318
root  0.144488 39.7007 2.81264 -55.9699 -85.9917 49.8035
RightUpLeg  -12.9588 -11.6232 -6.24332
RightLeg  7.08642 -10.1356 5.03435
RightFoot  12.0023 1.16164 -5.25058
RightToes  -2.9104e-010 0 -3.6325e-017
Spine  14.7475 -1.83993 4.21854
Spine1  14.1933 -2.17169 2.08446
HEad  -31.6417 -14.0493 9.20737
LeftShoulder1  7.9068 -12.5751 -42.7394
LeftArm  -14.5929 13.1023 -32.3338
LeftForeArm  38.7042 -31.9896 -4.86545
LeftHand  -0.244104 0.0205437 5.32207
RightShoulder  5.17437 9.22443 34.6967
RightArm  -7.01392 -13.4537 37.4259
RightForeArm  -3.73505 36.9685 8.66289
RightHand  -1.83233 4.81303 -20.9118
LeftUpLeg  7.38765 12.2927 -2.35481
LeftLeg  19.5756 3.17086 1.57059
LeftFoot  -15.6394 0.0420567 -1.31151
LeftToes  -1.62803e-010 -2.57217e-011 -2.5681e-011
319
root  1.30544 39.602 2.78311 -54.9134 -84.7591 48.7874
RightUpLeg  -12.7733 -11.3512 -7.78306
RightLeg  3.71626 -11.2652 5.71108
RightFoot  12.9738 -0.0521587 0.684777
RightToes  -2.9104e-010 0 -3.6325e-017
Spine  15.1184 -1.67398 1.92358
Spine1  13.7218 -2.29176 2.01387
HEad  -32.5544 -14.1574 10.1675
LeftShoulder1  7.89864 -12.6855 -42.3822
LeftArm  -15.4097 11.6341 -31.7032
LeftForeArm  39.9989 -35.5472 -5.66216
LeftHand  -0.244104 0.0205437 5.32207
RightShoulder  5.13307 9.26392 34.2529
RightArm  -7.97186 -12.207 38.4015
RightForeArm  -1.62148 37.2937 8.63918
RightHand  -1.81011 4.7525 -20.7851
LeftUpLeg  5.99455 13.5381 -3.53523
LeftLeg  18.4865 2.61382 1.1968
LeftFoot  -16.0095 0.152172 1.43195
LeftToes  -1.62803e-010 -2.57217e-011 -2.5681e-011
320
root  2.45791 39.5015 2.71493 -54.8821 -83.4357 48.9552
RightUpLeg  -12.3225 -12.1028 -9.69012
RightLeg  0.300319 -11.8062 6.52082
RightFoot  11.96 -1.9982 10.1328
RightToes  -2.9104e-010 0 -3.6325e-017
Spine  15.3694 -1.44076 -0.375212
Spine1  12.9763 -2.21535 1.67971
HEad  -33.1859 -14.5848 10.7853
LeftShoulder1  7.85316 -12.7685 -41.8909
LeftArm  -15.9099 10.2409 -31.2387
LeftForeArm  41.7531 -38.4381 -6.32541
LeftHand  -0.244104 0.0205437 5.32207
RightShoulder  5.08603 9.23454 33.9794
RightArm  -8.5669 -11.5148 39.1487
RightForeArm  -0.0647244 37.6706 8.6624
RightHand  -1.72604 4.38299 -20.5686
LeftUpLeg  3.40788 14.2899 -4.89372
LeftLeg  19.4262 1.63586 0.760881
LeftFoot  -15.2421 0.185309 2.7432
LeftToes  -1.62803e-010 -2.57217e-011 -2.5681e-011
321
root  3.54284 39.459 2.63418 -54.5729 -82.5702 48.6214
RightUpLeg  -12.1459 -12.8268 -11.1987
RightLeg  -0.759671 -12.5247 6.86724
RightFoot  9.58095 -2.96265 16.2679
RightToes  -2.9104e-010 0 -3.6325e-017
Spine  15.5792 -1.25862 -1.79863
Spine1  12.18 -1.92324 0.86747
HEad  -33.2354 -15.3822 10.7145
LeftShoulder1  7.79909 -12.8297 -41.4129
LeftArm  -16.3057 9.34845 -30.9275
LeftForeArm  43.3063 -40.7576 -6.88974
LeftHand  -0.244104 0.0205437 5.32207
RightShoulder  5.06213 9.21673 33.8486
RightArm  -8.47814 -11.2597 39.6121
RightForeArm  0.67584 37.7375 8.63864
RightHand  -1.62843 3.98676 -20.2316
LeftUpLeg  1.11504 14.8794 -5.80273
LeftLeg  20.3732 0.650138 0.390551
LeftFoot  -14.0684 0.163514 3.32024
LeftToes  -1.62803e-010 -2.57217e-011 -2.5681e-011
322
root  4.57958 39.5586 2.57616 -52.3399 -82.6617 45.9639
RightUpLeg  -12.9014 -14.342 -11.0619
RightLeg  3.08123 -12.6422 5.5796
RightFoot  7.03373 -2.43969 15.2384
RightToes  -2.9104e-010 0 -3.6325e-017
Spine  15.9018 -1.24033 -1.57144
Spine1  11.5582 -1.55606 -0.167386
HEad  -32.5074 -16.37 9.77429
LeftShoulder1  7.78614 -12.8726 -41.2216
LeftArm  -16.6686 9.18856 -30.5522
LeftForeArm  43.9699 -42.4678 -7.36046
LeftHand  -0.244104 0.0205437 5.32207
RightShoulder  5.0507 9.24527 33.6713
RightArm  -7.62319 -11.14 39.9829
RightForeArm  0.70737 37.0959 8.4424
RightHand  -1.61709 3.96828 -20.1321
LeftUpLeg  -0.0863097 14.901 -5.7655
LeftLeg  19.9584 0.643852 0.211224
LeftFoot  -12.3872 0.109989 3.94246
LeftToes  -1.62803e-010 -2.57217e-011 -2.5681e-011
323
root  5.56811 39.7315 2.51132 -48.7822 -83.3281 41.689
RightUpLeg  -14.3388 -20.3622 -8.58199
RightLeg  11.1534 -8.1868 1.75693
RightFoot  4.99333 -1.5196 10.812
RightToes  -2.9104e-010 0 -3.6325e-017
Spine  16.187 -1.2936 -0.652457
Spine1  11.0066 -1.26269 -0.990503
HEad  -31.05 -17.2202 8.14068
LeftShoulder1  7.81298 -12.8634 -41.4006
LeftArm  -16.9481 9.76568 -30.0809
LeftForeArm  43.8595 -43.3538 -7.64275
LeftHand  -0.244104 0.0205437 5.32207
RightShoulder  5.01286 9.23876 33.396
RightArm  -6.15912 -10.9988 40.2839
RightForeArm  0.623097 35.7923 8.06234
RightHand  -1.68513 4.29044 -20.2829
LeftUpLeg  -0.459891 14.1436 -5.0773
LeftLeg  18.6713 1.62178 0.100454
LeftFoot  -10.2301 0.0180157 4.51832
LeftToes  -1.62803e-010 -2.57217e-011 -2.5681e-011
324
root  6.48735 39.8804 2.398 -45.969 -83.9714 38.1447
RightUpLeg  -15.1658 -24.2728 -6.70436
RightLeg  20.1074 -4.3416 -2.45621
RightFoot  3.5113 -1.06231 8.34589
RightToes  -2.9104e-010 0 -3.6325e-017
Spine  16.1657 -1.22155 -0.269323
Spine1  10.3947 -1.04464 -1.36916
HEad  -29.1948 -17.7854 6.38712
LeftShoulder1  7.80852 -12.7461 -41.6966
LeftArm  -16.9797 10.8674 -29.6943
LeftForeArm  43.4334 -43.3108 -7.65614
LeftHand  -0.244104 0.0205437 5.32207
RightShoulder  4.94774 9.13277 33.2118
RightArm  -4.62179 -11.0287 40.3725
RightForeArm  1.08503 34.3353 7.62127
RightHand  -1.71782 4.51154 -20.2203
LeftUpLeg  -0.54063 12.7298 -4.27455
LeftLeg  17.2073 3.17675 -0.2464
LeftFoot  -8.03212 -0.0903105 4.80845
LeftToes  -1.62803e-010 -2.57217e-011 -2.5681e-011
325
root  7.33759 40.0098 2.24187 -44.7578 -84.4864 36.4167
RightUpLeg  -14.5589 -18.7532 -8.14649
RightLeg  29.4382 -7.54917 -4.78298
RightFoot  2.35598 -0.947719 8.01413
RightToes  -2.9104e-010 0 -3.6325e-017
Spine  15.7758 -1.00253 -0.329019
Spine1  9.7549 -0.796311 -1.4991
HEad  -27.3766 -18.2484 5.08168
LeftShoulder1  7.7239 -12.5172 -41.8438
LeftArm  -16.5838 12.1864 -29.3904
LeftForeArm  42.7426 -42.465 -7.43499
LeftHand  -0.244104 0.0205437 5.32207
RightShoulder  4.89872 8.98518 33.2819
RightArm  -3.65761 -11.5303 40.291
RightForeArm  1.89438 33.1771 7.25833
RightHand  -1.67067 4.42077 -19.8576
LeftUpLeg  -0.498068 11.1383 -3.50179
LeftLeg  15.365 4.91081 -0.933147
LeftFoot  -5.9579 -0.19881 4.98632
LeftToes  -1.62803e-010 -2.57217e-011 -2.5681e-011
326
root  8.14982 40.1105 2.05207 -44.4861 -84.8945 35.8779
RightUpLeg  -14.0941 -14.824 -8.95034
RightLeg  38.471 -7.43973 -6.54445
RightFoot  1.6142 -0.815051 7.26336
RightToes  -2.9104e-010 0 -3.6325e-017
Spine  15.1362 -0.807505 -0.33057
Spine1  9.16075 -0.490281 -1.83005
HEad  -25.9534 -18.7703 4.33754
LeftShoulder1  7.61127 -12.2576 -41.9173
LeftArm  -15.8458 13.5593 -28.8935
LeftForeArm  41.6836 -41.0497 -7.07172
LeftHand  -0.244104 0.0205437 5.32207
RightShoulder  4.89091 8.88145 33.5456
RightArm  -3.36587 -12.4174 40.2738
RightForeArm  2.12732 32.2837 7.00795
RightHand  -1.62392 4.25533 -19.6382
LeftUpLeg  -0.593465 9.92451 -2.78794
LeftLeg  13.4251 6.33086 -1.75375
LeftFoot  -4.01112 -0.305025 5.13858
LeftToes  -1.62803e-010 -2.57217e-011 -2.5681e-011
327
root  8.98034 40.1321 1.82342 -45.0911 -85.101 36.3505
RightUpLeg  -12.9871 -11.8101 -9.61174
RightLeg  45.9785 -6.73078 -7.71591
RightFoot  1.07687 -0.662733 6.15477
RightToes  -2.9104e-010 0 -3.6325e-017
Spine  14.3812 -0.735142 -0.326908
Spine1  8.76588 -0.225727 -2.47802
HEad  -25.0914 -19.1676 3.90312
LeftShoulder1  7.56119 -12.0667 -42.1682
LeftArm  -15.2233 15.0027 -28.0747
LeftForeArm  40.5285 -39.2271 -6.61499
LeftHand  -0.244104 0.0205437 5.32207
RightShoulder  4.9049 8.81704 33.8633
RightArm  -3.23416 -13.193 40.3864
RightForeArm  1.53636 31.317 6.78997
RightHand  -1.63419 4.28238 -19.7048
LeftUpLeg  -1.22644 9.29588 -2.30687
LeftLeg  12.2249 7.0925 -2.34485
LeftFoot  -2.29535 -0.382773 5.01584
LeftToes  -1.62803e-010 -2.57217e-011 -2.5681e-011
